<?xml version="1.0" encoding="UTF-8"?>
<!DOCTYPE svg PUBLIC "-//W3C//DTD SVG 1.1//EN" "http://www.w3.org/Graphics/SVG/1.1/DTD/svg11.dtd">
<!-- Creator: CorelDRAW 2018 (64 Bit Versão de avaliação) -->
<svg xmlns="http://www.w3.org/2000/svg" xml:space="preserve" width="311px" height="71px" version="1.1" style="shape-rendering:geometricPrecision; text-rendering:geometricPrecision; image-rendering:optimizeQuality; fill-rule:evenodd; clip-rule:evenodd"
viewBox="0 0 33.52 7.62"
 xmlns:xlink="http://www.w3.org/1999/xlink">
 <defs>
  <style type="text/css">
   <![CDATA[
    .fil19 {fill:#FEFEFE}
    .fil7 {fill:#F7993F}
    .fil6 {fill:#F47B43}
    .fil2 {fill:#EF4F47}
    .fil5 {fill:#EE4389}
    .fil3 {fill:#EE3E48}
    .fil4 {fill:#EC385F}
    .fil8 {fill:#D6C13F}
    .fil16 {fill:#934698}
    .fil9 {fill:#69BD54}
    .fil18 {fill:#00AF5A}
    .fil1 {fill:#00AD89}
    .fil15 {fill:#3C56A3}
    .fil17 {fill:#0099B7}
    .fil10 {fill:#00AA5B}
    .fil11 {fill:#0098A0}
    .fil12 {fill:#017DB0}
    .fil14 {fill:#0875B5}
    .fil13 {fill:#1B67A5}
    .fil0 {fill:white}
   ]]>
  </style>
 </defs>
 <g id="Camada_x0020_1">
  <metadata id="CorelCorpID_0Corel-Layer"/>
  <g id="_1799437158240">
   <path class="fil0" d="M33.42 2.1l0.09 -0.64c0.02,-0.12 0,-0.15 -0.11,-0.15l-3.58 0c-0.1,0 -0.12,0.03 -0.15,0.15l-0.1 0.64c0,0.1 0.02,0.14 0.13,0.14l1.23 0 -0.56 3.92c-0.02,0.11 0.03,0.14 0.14,0.14l0.75 0c0.14,0 0.16,-0.02 0.18,-0.14l0.56 -3.92 1.27 0c0.11,0 0.13,-0.04 0.15,-0.14zm-4.58 4.04l0 0 0.07 -0.6c0.02,-0.15 0.01,-0.17 -0.11,-0.17l-1.88 0c-0.29,0 -0.44,-0.1 -0.39,-0.43l0.11 -0.81 2 0c0.11,0 0.14,-0.05 0.16,-0.17l0.08 -0.55c0.02,-0.13 0.01,-0.17 -0.11,-0.17l-2 0 0.08 -0.55c0.03,-0.25 0.14,-0.44 0.51,-0.44l1.72 0c0.12,0 0.14,-0.04 0.16,-0.16l0.09 -0.61c0.02,-0.13 0,-0.17 -0.12,-0.17l-2.04 0c-0.99,0 -1.28,0.65 -1.38,1.32l-0.34 2.37c-0.09,0.64 0.07,1.3 1.11,1.3l2.11 0c0.11,0 0.14,-0.04 0.17,-0.16zm-6.52 -3.19l0 0 0.03 0 0.43 0.99 0.94 2.05c0.11,0.27 0.18,0.31 0.47,0.31l0.29 0c0.37,0 0.47,-0.18 0.52,-0.49l0.62 -4.35c0.01,-0.1 -0.03,-0.15 -0.14,-0.15l-0.73 0c-0.14,0 -0.16,0.04 -0.19,0.15l-0.45 3.21 -0.04 0 -0.44 -1 -0.91 -2.03c-0.14,-0.28 -0.18,-0.33 -0.47,-0.33l-0.3 0c-0.35,0 -0.47,0.13 -0.53,0.5l-0.61 4.35c-0.03,0.11 0.03,0.14 0.14,0.14l0.74 0c0.13,0 0.15,-0.02 0.17,-0.14l0.46 -3.21zm-4.86 -1.52l0 0 -0.38 2.7c-0.23,1.67 0.19,2.17 1.77,2.17 0.29,0 0.79,-0.02 1.14,-0.09 0.35,-0.06 0.49,-0.25 0.54,-0.54l0.61 -4.24c0.02,-0.1 0.01,-0.12 -0.09,-0.12l-0.32 0c-0.08,0 -0.12,0.02 -0.12,0.12l-0.63 4.29c-0.44,0.09 -0.87,0.1 -1.04,0.1 -1.37,0 -1.49,-0.53 -1.31,-1.74l0.39 -2.65c0,-0.1 -0.02,-0.12 -0.11,-0.12l-0.31 0c-0.08,0 -0.13,0.02 -0.14,0.12zm-2.4 0.36l0 0c0.95,0 1.27,0.61 1.27,1.41 0,1.34 -0.6,2.63 -1.89,2.63 -0.92,0 -1.24,-0.58 -1.24,-1.4 0,-1.32 0.56,-2.64 1.86,-2.64zm0.02 -0.48l0 0c-1.34,0 -2.43,1.17 -2.43,3.18 0,1.13 0.59,1.81 1.75,1.81 1.59,0 2.45,-1.41 2.45,-3.12 0,-1.19 -0.61,-1.87 -1.77,-1.87zm-4.17 0.49l0 0c0.37,0 0.82,0.07 1.27,0.26 0.03,0.02 0.05,0.02 0.09,-0.04l0.12 -0.32c0.02,-0.06 0.01,-0.08 -0.04,-0.1 -0.41,-0.2 -0.96,-0.29 -1.39,-0.29 -1.04,0 -1.7,0.47 -1.7,1.29 0,0.63 0.46,0.93 1.41,1.34 0.72,0.29 1.08,0.5 1.08,0.98 0,0.64 -0.52,0.9 -1.31,0.9 -0.43,0 -0.98,-0.1 -1.41,-0.33 -0.05,-0.01 -0.09,0 -0.11,0.03l-0.16 0.31c-0.03,0.06 -0.03,0.1 0.01,0.12 0.51,0.29 1.22,0.35 1.72,0.35 1.05,0 1.86,-0.44 1.86,-1.42 0,-0.73 -0.57,-1.08 -1.34,-1.38 -0.71,-0.3 -1.16,-0.49 -1.16,-0.92 0,-0.5 0.43,-0.78 1.06,-0.78z"/>
   <path class="fil1" d="M1.35 3.88c1.52,0.6 2.63,2.02 2.74,3.73 0.17,-0.01 0.33,-0.04 0.49,-0.07l0.01 0 0.01 0 0 0c0.08,-0.02 0.16,-0.04 0.23,-0.06 0.08,-0.47 0.24,-0.91 0.48,-1.3 -0.79,-0.68 -1.32,-1.63 -1.47,-2.71 -0.15,0.02 -0.3,0.02 -0.45,0.02 -0.73,0 -1.42,-0.18 -2.03,-0.5 0.01,0.13 0.02,0.25 0.02,0.38 0,0.18 -0.01,0.35 -0.03,0.51z"/>
   <path class="fil2" d="M3.3 0.84c-0.14,-0.23 -0.25,-0.48 -0.35,-0.74 -0.4,0.09 -0.77,0.24 -1.11,0.45l-0.01 0.01c-0.02,0.01 -0.04,0.02 -0.05,0.03 -0.32,0.2 -0.61,0.45 -0.86,0.74 -0.01,0.01 -0.02,0.02 -0.03,0.03 0.16,0.02 0.33,0.04 0.5,0.04 0.7,0 1.36,-0.21 1.91,-0.56z"/>
   <path class="fil3" d="M2.95 0.1c0.1,0.26 0.21,0.51 0.35,0.74 0.35,-0.22 0.66,-0.5 0.91,-0.82 -0.13,-0.01 -0.27,-0.02 -0.4,-0.02 -0.29,0 -0.58,0.03 -0.86,0.1z"/>
   <path class="fil4" d="M4.21 0.02c-0.25,0.32 -0.56,0.6 -0.91,0.82 0.19,0.31 0.42,0.6 0.66,0.87 0.17,-0.59 0.46,-1.12 0.84,-1.58 -0.04,-0.01 -0.08,-0.02 -0.13,-0.03 -0.07,-0.02 -0.13,-0.03 -0.2,-0.04 -0.09,-0.02 -0.18,-0.03 -0.26,-0.04z"/>
   <g>
    <path class="fil5" d="M4.8 0.13c-0.38,0.46 -0.67,0.99 -0.84,1.58 0.5,0.49 1.1,0.87 1.78,1.09 0.47,-0.31 0.88,-0.7 1.2,-1.16 -0.24,-0.35 -0.55,-0.66 -0.89,-0.91l-0.01 -0.01c-0.01,-0.01 -0.03,-0.02 -0.04,-0.03 -0.02,-0.01 -0.04,-0.03 -0.06,-0.04l0 0 0 0c-0.35,-0.23 -0.73,-0.41 -1.14,-0.52zm1.2 0.56c-0.02,-0.01 -0.04,-0.03 -0.06,-0.04l0.06 0.04z"/>
   </g>
   <path class="fil6" d="M3.8 2.89c0,-0.41 0.06,-0.81 0.16,-1.18 -0.24,-0.27 -0.47,-0.56 -0.66,-0.87 -0.55,0.35 -1.21,0.56 -1.91,0.56 -0.17,0 -0.34,-0.02 -0.5,-0.04l-0.01 0.01c0.27,0.49 0.43,1.04 0.48,1.62 0.61,0.32 1.3,0.5 2.03,0.5 0.15,0 0.3,0 0.45,-0.02 -0.02,-0.19 -0.04,-0.38 -0.04,-0.58z"/>
   <path class="fil7" d="M1.36 2.99c-0.05,-0.58 -0.21,-1.13 -0.48,-1.62 -0.03,0.05 -0.07,0.09 -0.11,0.14 -0.15,0.2 -0.28,0.42 -0.4,0.65 -0.01,0.03 -0.02,0.05 -0.03,0.08 0.3,0.3 0.64,0.55 1.02,0.75z"/>
   <path class="fil8" d="M1.36 2.99c-0.38,-0.2 -0.72,-0.45 -1.02,-0.75 -0.08,0.17 -0.14,0.34 -0.19,0.52l-0.01 0.02c0,0.02 -0.01,0.04 -0.01,0.06 -0.07,0.24 -0.11,0.49 -0.12,0.75 0.47,0.03 0.92,0.13 1.34,0.29 0.02,-0.16 0.03,-0.33 0.03,-0.51 0,-0.13 -0.01,-0.25 -0.02,-0.38z"/>
   <path class="fil9" d="M1.35 3.88c-0.42,-0.16 -0.87,-0.26 -1.34,-0.29 0,0.01 0,0.02 -0.01,0.03 0,0.06 0,0.13 0,0.19 0,0.03 0,0.07 0,0.1l0 0c0.02,0.71 0.23,1.38 0.59,1.94 0.41,-0.57 0.67,-1.24 0.76,-1.97z"/>
   <path class="fil10" d="M3.86 7.62c-0.81,-0.91 -1.95,-1.54 -3.22,-1.7 0.44,0.65 1.07,1.17 1.81,1.45l0.02 0.01c0.05,0.01 0.1,0.03 0.14,0.05 0.02,0 0.03,0 0.04,0.01 0.02,0 0.04,0.01 0.06,0.02 0.01,0 0.02,0.01 0.04,0.01 0.01,0 0.02,0.01 0.04,0.01 0.01,0 0.03,0.01 0.04,0.01 0.02,0.01 0.04,0.01 0.05,0.02 0.02,0 0.03,0 0.05,0.01 0.01,0 0.02,0 0.03,0 0.03,0.01 0.05,0.02 0.07,0.02 0.01,0 0.02,0 0.03,0.01 0.02,0 0.04,0 0.06,0.01 0.01,0 0.01,0 0.02,0 0.03,0.01 0.05,0.01 0.08,0.01l0.02 0.01c0.03,0 0.05,0 0.08,0.01l0.02 0c0.02,0 0.04,0.01 0.07,0.01 0,0 0.01,0 0.02,0 0.03,0 0.05,0.01 0.08,0.01l0.02 0c0.02,0 0.05,0 0.07,0l0.02 0c0.03,0.01 0.05,0.01 0.08,0.01l0.02 0c0.03,0 0.06,0 0.09,0 0.02,0 0.04,0 0.05,0z"/>
   <path class="fil11" d="M5.31 6.18c-0.24,0.39 -0.4,0.83 -0.48,1.3 0.29,-0.08 0.56,-0.19 0.82,-0.33 0.2,-0.11 0.38,-0.24 0.56,-0.38 -0.32,-0.16 -0.63,-0.36 -0.9,-0.59z"/>
   <path class="fil12" d="M5.31 6.18c0.27,0.23 0.58,0.43 0.9,0.59 0.05,-0.04 0.09,-0.08 0.14,-0.12 0.01,-0.01 0.02,-0.02 0.04,-0.03 0.02,-0.02 0.04,-0.04 0.06,-0.06 -0.15,-0.43 -0.23,-0.9 -0.26,-1.37 -0.35,0.27 -0.65,0.6 -0.88,0.99z"/>
   <path class="fil13" d="M6.19 5.19c0.03,0.47 0.11,0.94 0.26,1.37 0.55,-0.53 0.94,-1.23 1.1,-2.01 -0.51,0.11 -0.96,0.34 -1.36,0.64z"/>
   <path class="fil14" d="M6.19 5.19c0.4,-0.3 0.85,-0.53 1.36,-0.64 0.01,-0.08 0.03,-0.17 0.04,-0.25 0.01,-0.11 0.02,-0.22 0.03,-0.33 0,-0.01 0,-0.03 0,-0.05l0 -0.02c0,-0.03 0,-0.06 0,-0.09 0,-0.25 -0.03,-0.5 -0.07,-0.74 -0.01,-0.02 -0.01,-0.05 -0.02,-0.07 -0.13,0.01 -0.27,0.02 -0.42,0.02 -0.18,0 -0.37,-0.01 -0.55,-0.03 -0.24,0.6 -0.38,1.26 -0.38,1.95 0,0.08 0.01,0.16 0.01,0.25z"/>
   <path class="fil15" d="M6.56 2.99c0.18,0.02 0.37,0.03 0.55,0.03 0.15,0 0.29,-0.01 0.42,-0.02 -0.03,-0.15 -0.07,-0.29 -0.12,-0.43 0,-0.02 -0.01,-0.04 -0.02,-0.06l0 -0.01c-0.02,-0.06 -0.05,-0.12 -0.07,-0.17l0 -0.01c-0.01,-0.02 -0.02,-0.04 -0.03,-0.06 -0.05,-0.11 -0.1,-0.21 -0.16,-0.32 -0.23,0.33 -0.41,0.68 -0.57,1.05z"/>
   <path class="fil16" d="M6.56 2.99c0.16,-0.37 0.34,-0.72 0.57,-1.05 -0.06,-0.11 -0.12,-0.2 -0.19,-0.3 -0.32,0.46 -0.73,0.85 -1.2,1.16 0.27,0.09 0.54,0.15 0.82,0.19z"/>
   <path class="fil17" d="M6.56 2.99c-0.28,-0.04 -0.55,-0.1 -0.82,-0.19 -0.55,0.36 -1.2,0.6 -1.9,0.67 0.15,1.08 0.68,2.03 1.47,2.71 0.23,-0.39 0.53,-0.72 0.88,-0.99 0,-0.09 -0.01,-0.17 -0.01,-0.25 0,-0.69 0.14,-1.35 0.38,-1.95z"/>
   <path class="fil18" d="M4.1 7.61c-0.13,-1.7 -1.24,-3.14 -2.75,-3.73 -0.09,0.73 -0.35,1.4 -0.76,1.97 0.01,0.02 0.02,0.03 0.03,0.04 0.01,0.01 0.01,0.02 0.02,0.03 1.27,0.16 2.4,0.8 3.22,1.7 0.08,0 0.16,-0.01 0.24,-0.01z"/>
   <path class="fil16" d="M5.74 2.8c-0.68,-0.22 -1.28,-0.6 -1.78,-1.09 -0.1,0.37 -0.16,0.77 -0.16,1.18 0,0.2 0.02,0.39 0.04,0.58 0.7,-0.07 1.35,-0.31 1.9,-0.67z"/>
   <path class="fil1" d="M1.35 3.88c1.52,0.6 2.63,2.02 2.74,3.73 0.17,-0.01 0.33,-0.04 0.49,-0.07l0.01 0 0.01 0 0 0c0.08,-0.02 0.16,-0.04 0.23,-0.06 0.08,-0.47 0.24,-0.91 0.48,-1.3 -0.79,-0.68 -1.32,-1.63 -1.47,-2.71 -0.15,0.02 -0.3,0.02 -0.45,0.02 -0.73,0 -1.42,-0.18 -2.03,-0.5 0.01,0.13 0.02,0.25 0.02,0.38 0,0.18 -0.01,0.35 -0.03,0.51z"/>
   <path class="fil2" d="M3.3 0.84c-0.14,-0.23 -0.25,-0.48 -0.35,-0.74 -0.4,0.09 -0.77,0.24 -1.11,0.45l-0.01 0.01c-0.02,0.01 -0.04,0.02 -0.05,0.03 -0.32,0.2 -0.61,0.45 -0.86,0.74 -0.01,0.01 -0.02,0.02 -0.03,0.03 0.16,0.02 0.33,0.04 0.5,0.04 0.7,0 1.36,-0.21 1.91,-0.56z"/>
   <path class="fil3" d="M2.95 0.1c0.1,0.26 0.21,0.51 0.35,0.74 0.35,-0.22 0.66,-0.5 0.91,-0.82 -0.13,-0.01 -0.27,-0.02 -0.4,-0.02 -0.29,0 -0.58,0.03 -0.86,0.1z"/>
   <path class="fil4" d="M4.21 0.02c-0.25,0.32 -0.56,0.6 -0.91,0.82 0.19,0.31 0.42,0.6 0.66,0.87 0.17,-0.59 0.46,-1.12 0.84,-1.58 -0.04,-0.01 -0.08,-0.02 -0.13,-0.03 -0.07,-0.02 -0.13,-0.03 -0.2,-0.04 -0.09,-0.02 -0.18,-0.03 -0.26,-0.04z"/>
   <g>
    <path class="fil5" d="M4.8 0.13c-0.38,0.46 -0.67,0.99 -0.84,1.58 0.5,0.49 1.1,0.87 1.78,1.09 0.47,-0.31 0.88,-0.7 1.2,-1.16 -0.24,-0.35 -0.55,-0.66 -0.89,-0.91l-0.01 -0.01c-0.01,-0.01 -0.03,-0.02 -0.04,-0.03 -0.02,-0.01 -0.04,-0.03 -0.06,-0.04l0 0 0 0c-0.35,-0.23 -0.73,-0.41 -1.14,-0.52zm1.2 0.56c-0.02,-0.01 -0.04,-0.03 -0.06,-0.04l0.06 0.04z"/>
   </g>
   <path class="fil6" d="M3.8 2.89c0,-0.41 0.06,-0.81 0.16,-1.18 -0.24,-0.27 -0.47,-0.56 -0.66,-0.87 -0.55,0.35 -1.21,0.56 -1.91,0.56 -0.17,0 -0.34,-0.02 -0.5,-0.04l-0.01 0.01c0.27,0.49 0.43,1.04 0.48,1.62 0.61,0.32 1.3,0.5 2.03,0.5 0.15,0 0.3,0 0.45,-0.02 -0.02,-0.19 -0.04,-0.38 -0.04,-0.58z"/>
   <path class="fil7" d="M1.36 2.99c-0.05,-0.58 -0.21,-1.13 -0.48,-1.62 -0.03,0.05 -0.07,0.09 -0.11,0.14 -0.15,0.2 -0.28,0.42 -0.4,0.65 -0.01,0.03 -0.02,0.05 -0.03,0.08 0.3,0.3 0.64,0.55 1.02,0.75z"/>
   <path class="fil8" d="M1.36 2.99c-0.38,-0.2 -0.72,-0.45 -1.02,-0.75 -0.08,0.17 -0.14,0.34 -0.19,0.52l-0.01 0.02c0,0.02 -0.01,0.04 -0.01,0.06 -0.07,0.24 -0.11,0.49 -0.12,0.75 0.47,0.03 0.92,0.13 1.34,0.29 0.02,-0.16 0.03,-0.33 0.03,-0.51 0,-0.13 -0.01,-0.25 -0.02,-0.38z"/>
   <path class="fil9" d="M1.35 3.88c-0.42,-0.16 -0.87,-0.26 -1.34,-0.29 0,0.01 0,0.02 -0.01,0.03 0,0.06 0,0.13 0,0.19 0,0.03 0,0.07 0,0.1l0 0c0.02,0.71 0.23,1.38 0.59,1.94 0.41,-0.57 0.67,-1.24 0.76,-1.97z"/>
   <path class="fil10" d="M3.86 7.62c-0.81,-0.91 -1.95,-1.54 -3.22,-1.7 0.44,0.65 1.07,1.17 1.81,1.45l0.02 0.01c0.05,0.01 0.1,0.03 0.14,0.05 0.02,0 0.03,0 0.04,0.01 0.02,0 0.04,0.01 0.06,0.02 0.01,0 0.02,0.01 0.04,0.01 0.01,0 0.02,0.01 0.04,0.01 0.01,0 0.03,0.01 0.04,0.01 0.02,0.01 0.04,0.01 0.05,0.02 0.02,0 0.03,0 0.05,0.01 0.01,0 0.02,0 0.03,0 0.03,0.01 0.05,0.02 0.07,0.02 0.01,0 0.02,0 0.03,0.01 0.02,0 0.04,0 0.06,0.01 0.01,0 0.01,0 0.02,0 0.03,0.01 0.05,0.01 0.08,0.01l0.02 0.01c0.03,0 0.05,0 0.08,0.01l0.02 0c0.02,0 0.04,0.01 0.07,0.01 0,0 0.01,0 0.02,0 0.03,0 0.05,0.01 0.08,0.01l0.02 0c0.02,0 0.05,0 0.07,0l0.02 0c0.03,0.01 0.05,0.01 0.08,0.01l0.02 0c0.03,0 0.06,0 0.09,0 0.02,0 0.04,0 0.05,0z"/>
   <path class="fil11" d="M5.31 6.18c-0.24,0.39 -0.4,0.83 -0.48,1.3 0.29,-0.08 0.56,-0.19 0.82,-0.33 0.2,-0.11 0.38,-0.24 0.56,-0.38 -0.32,-0.16 -0.63,-0.36 -0.9,-0.59z"/>
   <path class="fil12" d="M5.31 6.18c0.27,0.23 0.58,0.43 0.9,0.59 0.05,-0.04 0.09,-0.08 0.14,-0.12 0.01,-0.01 0.02,-0.02 0.04,-0.03 0.02,-0.02 0.04,-0.04 0.06,-0.06 -0.15,-0.43 -0.23,-0.9 -0.26,-1.37 -0.35,0.27 -0.65,0.6 -0.88,0.99z"/>
   <path class="fil13" d="M6.19 5.19c0.03,0.47 0.11,0.94 0.26,1.37 0.55,-0.53 0.94,-1.23 1.1,-2.01 -0.51,0.11 -0.96,0.34 -1.36,0.64z"/>
   <path class="fil14" d="M6.19 5.19c0.4,-0.3 0.85,-0.53 1.36,-0.64 0.01,-0.08 0.03,-0.17 0.04,-0.25 0.01,-0.11 0.02,-0.22 0.03,-0.33 0,-0.01 0,-0.03 0,-0.05l0 -0.02c0,-0.03 0,-0.06 0,-0.09 0,-0.25 -0.03,-0.5 -0.07,-0.74 -0.01,-0.02 -0.01,-0.05 -0.02,-0.07 -0.13,0.01 -0.27,0.02 -0.42,0.02 -0.18,0 -0.37,-0.01 -0.55,-0.03 -0.24,0.6 -0.38,1.26 -0.38,1.95 0,0.08 0.01,0.16 0.01,0.25z"/>
   <path class="fil15" d="M6.56 2.99c0.18,0.02 0.37,0.03 0.55,0.03 0.15,0 0.29,-0.01 0.42,-0.02 -0.03,-0.15 -0.07,-0.29 -0.12,-0.43 0,-0.02 -0.01,-0.04 -0.02,-0.06l0 -0.01c-0.02,-0.06 -0.05,-0.12 -0.07,-0.17l0 -0.01c-0.01,-0.02 -0.02,-0.04 -0.03,-0.06 -0.05,-0.11 -0.1,-0.21 -0.16,-0.32 -0.23,0.33 -0.41,0.68 -0.57,1.05z"/>
   <path class="fil16" d="M6.56 2.99c0.16,-0.37 0.34,-0.72 0.57,-1.05 -0.06,-0.11 -0.12,-0.2 -0.19,-0.3 -0.32,0.46 -0.73,0.85 -1.2,1.16 0.27,0.09 0.54,0.15 0.82,0.19z"/>
   <path class="fil17" d="M6.56 2.99c-0.28,-0.04 -0.55,-0.1 -0.82,-0.19 -0.55,0.36 -1.2,0.6 -1.9,0.67 0.15,1.08 0.68,2.03 1.47,2.71 0.23,-0.39 0.53,-0.72 0.88,-0.99 0,-0.09 -0.01,-0.17 -0.01,-0.25 0,-0.69 0.14,-1.35 0.38,-1.95z"/>
   <path class="fil18" d="M4.1 7.61c-0.13,-1.7 -1.24,-3.14 -2.75,-3.73 -0.09,0.73 -0.35,1.4 -0.76,1.97 0.01,0.02 0.02,0.03 0.03,0.04 0.01,0.01 0.01,0.02 0.02,0.03 1.27,0.16 2.4,0.8 3.22,1.7 0.08,0 0.16,-0.01 0.24,-0.01z"/>
   <path class="fil16" d="M5.74 2.8c-0.68,-0.22 -1.28,-0.6 -1.78,-1.09 -0.1,0.37 -0.16,0.77 -0.16,1.18 0,0.2 0.02,0.39 0.04,0.58 0.7,-0.07 1.35,-0.31 1.9,-0.67z"/>
   <path class="fil19" d="M3.15 1.63l0.38 0c0.13,0 0.23,0.11 0.21,0.24l-0.11 0.77 0.67 0 0.1 -0.77c0.02,-0.13 0.14,-0.24 0.27,-0.24l0.38 0c0.13,0 0.22,0.11 0.2,0.24l-0.1 0.76 0.77 0c0.13,0 0.22,0.1 0.21,0.23l-0.05 0.38c-0.02,0.13 -0.14,0.23 -0.27,0.23l-0.77 0.01 -0.09 0.65 0.77 0c0.14,0 0.23,0.1 0.21,0.23l-0.04 0.38c-0.02,0.13 -0.14,0.24 -0.27,0.24l-0.78 0 -0.11 0.77c-0.01,0.13 -0.13,0.24 -0.26,0.24l-0.38 0c-0.13,0 -0.23,-0.11 -0.21,-0.24l0.11 -0.77 -0.67 0 -0.1 0.77c-0.02,0.13 -0.13,0.24 -0.27,0.24l-0.37 0c-0.14,0 -0.23,-0.11 -0.21,-0.24l0.1 -0.76 -0.77 0c-0.13,0 -0.22,-0.1 -0.2,-0.23l0.04 -0.38c0.02,-0.13 0.14,-0.23 0.27,-0.23l0.77 -0.01 0.09 -0.65 -0.78 0c-0.12,0 -0.22,-0.1 -0.2,-0.23l0.05 -0.38c0.01,-0.13 0.13,-0.24 0.26,-0.24l0.78 0 0.11 -0.77c0.01,-0.13 0.13,-0.24 0.26,-0.24zm0.38 1.85l0 0 -0.09 0.66 0.66 -0.01 0.09 -0.65 -0.66 0z"/>
  </g>
 </g>
</svg>
