<?xml version="1.0" encoding="UTF-8"?>
<!DOCTYPE svg PUBLIC "-//W3C//DTD SVG 1.1//EN" "http://www.w3.org/Graphics/SVG/1.1/DTD/svg11.dtd">
<!-- Creator: CorelDRAW 2018 (64 Bit Versão de avaliação) -->
<svg xmlns="http://www.w3.org/2000/svg" xml:space="preserve" width="300px" height="300px" version="1.1" style="shape-rendering:geometricPrecision; text-rendering:geometricPrecision; image-rendering:optimizeQuality; fill-rule:evenodd; clip-rule:evenodd"
viewBox="0 0 195.97 195.97"
 xmlns:xlink="http://www.w3.org/1999/xlink">
 <defs>
  <style type="text/css">
   <![CDATA[
    .fil3 {fill:none}
    .fil0 {fill:#0033FF;fill-rule:nonzero}
    .fil1 {fill:#14A9FF;fill-rule:nonzero}
    .fil2 {fill:#14A9FF;fill-rule:nonzero}
   ]]>
  </style>
 </defs>
 <g id="Camada_x0020_1">
  <metadata id="CorelCorpID_0Corel-Layer"/>
  <g id="_2352015623824">
   <g>
    <path class="fil0" d="M158.39 103.04c-1.37,-13.77 -7.52,-26.75 -17.33,-36.56 -8.37,-8.37 -18.63,-13.76 -29.42,-16.15l0 -7.57c4.41,-1.09 7.69,-5.08 7.69,-9.82 0,-5.59 -4.55,-10.13 -10.13,-10.13l-21.44 0c-5.59,0 -10.13,4.54 -10.13,10.13 0,4.74 3.28,8.73 7.68,9.82l0 7.59c-10.75,2.4 -20.97,7.78 -29.33,16.13 -1.82,1.83 -3.51,3.75 -5.05,5.74 -0.08,0 -0.15,-0.01 -0.23,-0.01l-21.22 0c-1.65,0 -2.98,1.33 -2.98,2.98 0,1.64 1.33,2.98 2.98,2.98l17.39 0c-2.18,3.65 -3.94,7.49 -5.28,11.44l-32.41 0c-1.65,0 -2.98,1.34 -2.98,2.98 0,1.65 1.33,2.98 2.98,2.98l30.73 0c-0.86,3.77 -1.35,7.6 -1.48,11.45l-13.17 0c-1.65,0 -2.98,1.33 -2.98,2.98 0,1.64 1.33,2.97 2.98,2.97l13.26 0c0.26,3.86 0.87,7.69 1.86,11.45l-19.29 0c-1.65,0 -2.98,1.34 -2.98,2.98 0,1.65 1.33,2.98 2.98,2.98l21.19 0c2.93,7.73 7.49,14.97 13.7,21.18 9.82,9.82 22.81,15.97 36.6,17.33 1.96,0.2 3.93,0.29 5.9,0.29 11.62,0 23.1,-3.36 32.83,-9.7 1.38,-0.9 1.77,-2.74 0.87,-4.12 -0.9,-1.38 -2.74,-1.77 -4.12,-0.87 -21.31,13.87 -49.85,10.88 -67.86,-7.14 -21.14,-21.13 -21.14,-55.52 0,-76.66 21.13,-21.13 55.52,-21.13 76.65,0 17.99,17.99 21.01,46.51 7.18,67.81 -0.9,1.38 -0.51,3.23 0.87,4.12 1.38,0.9 3.23,0.51 4.12,-0.87 7.39,-11.38 10.72,-25.13 9.37,-38.71zm-74.8 -70.1c0,-2.3 1.87,-4.17 4.17,-4.17l21.44 0c2.3,0 4.17,1.87 4.17,4.17 0,2.3 -1.87,4.17 -4.17,4.17l-21.44 0c-2.3,0 -4.17,-1.87 -4.17,-4.17zm7.68 16.39l0 -6.27 14.42 0 0 6.26c-4.79,-0.57 -9.63,-0.57 -14.42,0.01z"/>
    <path class="fil0" d="M138.96 146.48c-0.79,0 -1.55,0.32 -2.11,0.87 -0.55,0.56 -0.87,1.32 -0.87,2.11 0,0.78 0.32,1.55 0.87,2.1 0.56,0.56 1.32,0.87 2.11,0.87 0.78,0 1.55,-0.31 2.1,-0.87 0.56,-0.55 0.88,-1.32 0.88,-2.1 0,-0.79 -0.32,-1.55 -0.88,-2.11 -0.55,-0.55 -1.32,-0.87 -2.1,-0.87z"/>
    <path class="fil0" d="M98.52 62.82c-25.47,0 -46.2,20.73 -46.2,46.2 0,25.48 20.73,46.2 46.2,46.2 25.48,0 46.21,-20.72 46.21,-46.2 0,-25.47 -20.73,-46.2 -46.21,-46.2zm0 86.45c-22.19,0 -40.24,-18.06 -40.24,-40.25 0,-22.19 18.05,-40.24 40.24,-40.24 22.2,0 40.25,18.05 40.25,40.24 0,22.19 -18.05,40.25 -40.25,40.25z"/>
    <path class="fil1" d="M117.36 85.97l-14.75 14.75c-1.23,-0.61 -2.62,-0.95 -4.09,-0.95 -1.46,0 -2.85,0.34 -4.08,0.95l-6.61 -6.6c-1.16,-1.16 -3.04,-1.16 -4.21,0 -1.16,1.16 -1.16,3.05 0,4.21l6.6 6.6c-0.61,1.24 -0.95,2.63 -0.95,4.09 0,5.11 4.15,9.26 9.25,9.26 5.11,0 9.26,-4.15 9.26,-9.26 0,-1.46 -0.35,-2.85 -0.96,-4.09l14.76 -14.75c1.16,-1.16 1.16,-3.04 0,-4.21 -1.17,-1.16 -3.05,-1.16 -4.22,0zm-18.84 26.35c-1.82,0 -3.29,-1.48 -3.29,-3.3 0,-1.82 1.47,-3.3 3.29,-3.3 1.82,0 3.3,1.48 3.3,3.3 0,1.82 -1.48,3.3 -3.3,3.3z"/>
    <path class="fil2" d="M130.37 106.08l-2.76 0c-1.65,0 -2.98,1.33 -2.98,2.98 0,1.64 1.33,2.98 2.98,2.98l2.76 0c1.64,0 2.97,-1.34 2.97,-2.98 0,-1.65 -1.33,-2.98 -2.97,-2.98z"/>
    <path class="fil2" d="M69.44 106.01l-2.76 0c-1.64,0 -2.98,1.33 -2.98,2.98 0,1.64 1.34,2.97 2.98,2.97l2.76 0c1.64,0 2.98,-1.33 2.98,-2.97 0,-1.65 -1.34,-2.98 -2.98,-2.98z"/>
    <path class="fil2" d="M98.56 82.92c1.64,0 2.98,-1.34 2.98,-2.98l0 -2.76c0,-1.65 -1.34,-2.98 -2.98,-2.98 -1.64,0 -2.98,1.33 -2.98,2.98l0 2.76c0,1.64 1.34,2.98 2.98,2.98z"/>
    <path class="fil2" d="M98.49 135.13c-1.65,0 -2.98,1.33 -2.98,2.98l0 2.76c0,1.64 1.33,2.97 2.98,2.97 1.64,0 2.98,-1.33 2.98,-2.97l0 -2.76c0,-1.65 -1.34,-2.98 -2.98,-2.98z"/>
    <path class="fil0" d="M9.18 124.42c-0.79,0 -1.56,0.32 -2.11,0.87 -0.55,0.56 -0.87,1.33 -0.87,2.11 0,0.79 0.32,1.55 0.87,2.1 0.56,0.56 1.32,0.88 2.11,0.88 0.78,0 1.55,-0.32 2.1,-0.88 0.56,-0.55 0.87,-1.32 0.87,-2.1 0,-0.78 -0.31,-1.55 -0.87,-2.11 -0.55,-0.55 -1.32,-0.87 -2.1,-0.87z"/>
   </g>
   <rect class="fil3" width="195.97" height="195.97"/>
  </g>
 </g>
</svg>
