<?xml version="1.0" encoding="UTF-8"?>
<!DOCTYPE svg PUBLIC "-//W3C//DTD SVG 1.1//EN" "http://www.w3.org/Graphics/SVG/1.1/DTD/svg11.dtd">
<!-- Creator: CorelDRAW 2018 (64 Bit Versão de avaliação) -->
<svg xmlns="http://www.w3.org/2000/svg" xml:space="preserve" width="300px" height="300px" version="1.1" style="shape-rendering:geometricPrecision; text-rendering:geometricPrecision; image-rendering:optimizeQuality; fill-rule:evenodd; clip-rule:evenodd"
viewBox="0 0 69.73 69.73"
 xmlns:xlink="http://www.w3.org/1999/xlink">
 <defs>
  <style type="text/css">
   <![CDATA[
    .fil2 {fill:none}
    .fil0 {fill:#0033FF;fill-rule:nonzero}
    .fil1 {fill:#14A9FF;fill-rule:nonzero}
   ]]>
  </style>
 </defs>
 <g id="Camada_x0020_1">
  <metadata id="CorelCorpID_0Corel-Layer"/>
  <g id="_2352174993008">
   <g>
    <path class="fil0" d="M57.51 35.22l-6.06 0c-0.54,0 -0.99,0.45 -0.99,0.99 0,8.27 -6.46,15.06 -14.61,15.57l0 -1.65c0,-1.27 -1.98,-1.27 -1.98,0l0 1.65c-7.81,-0.49 -14.08,-6.76 -14.57,-14.58l1.6 0c1.27,0 1.27,-1.98 0,-1.98l-1.6 0c0.49,-7.81 6.76,-14.09 14.57,-14.58l0 1.71c0,0.77 0.92,1.26 1.56,0.81l8.29 -5.74c0.56,-0.38 0.56,-1.24 0,-1.63l-8.29 -5.74c-0.64,-0.44 -1.56,0.03 -1.56,0.81l0 1.74c-3.11,0.12 -6.1,0.84 -8.92,2.15 -1.16,0.53 -0.33,2.33 0.83,1.8 2.85,-1.32 5.91,-1.99 9.08,-1.99 0.55,0 0.99,-0.45 0.99,-1l0 -0.81 5.57 3.85 -5.57 3.86 0 -0.84c0,-0.54 -0.44,-0.99 -0.99,-0.99 -9.69,0 -17.58,7.89 -17.58,17.58 0,9.7 7.89,17.58 17.58,17.58 9.37,0 17.04,-7.35 17.56,-16.59l4.08 0c-0.24,5.42 -2.47,10.47 -6.32,14.33 -4.09,4.09 -9.53,6.34 -15.32,6.34 -5.78,0 -11.22,-2.25 -15.31,-6.34 -4.09,-4.09 -6.34,-9.53 -6.34,-15.32 0,-5.82 2.28,-11.29 6.41,-15.39 0.91,-0.89 -0.48,-2.3 -1.39,-1.4 -4.52,4.47 -7,10.44 -7,16.79 0,6.32 2.46,12.25 6.92,16.72 4.46,4.46 10.4,6.92 16.71,6.92 6.32,0 12.25,-2.46 16.72,-6.92 4.46,-4.47 6.92,-10.4 6.92,-16.72 0,-0.54 -0.44,-0.99 -0.99,-0.99z"/>
    <path class="fil1" d="M30.15 35.35c-1,0.73 -2.05,1.39 -2.78,2.43 -0.53,0.76 -1.15,3.72 0.42,3.72l5.74 0c0.88,0 0.89,-1.88 -0.01,-1.88l-4.59 0c-0.03,-0.55 0.12,-0.97 0.54,-1.37 0.86,-0.82 1.91,-1.42 2.84,-2.15 1.82,-1.42 2.72,-4.25 0.59,-5.84 -1.83,-1.37 -4.84,-0.92 -5.77,1.3 -0.36,0.84 -0.24,2.39 1.08,2.08 0.93,-0.21 0.64,-1.34 1.22,-1.91 0.8,-0.8 2.29,-0.32 2.55,0.73 0.3,1.22 -0.97,2.25 -1.83,2.89z"/>
    <path class="fil1" d="M40.87 41.31c0.49,0.29 1.82,0.31 1.82,-0.52l0 -2.02 0.77 0c0.89,0 0.93,-1.88 0,-1.88l-0.77 0 0 -1.8c0,-0.98 -2.14,-0.98 -2.14,0l0 1.8 -1.92 0 3.16 -6.31c0.49,-0.98 -1.44,-1.51 -1.89,-0.55l-3.9 7.6c-0.27,0.51 0.01,1.14 0.61,1.14l3.94 0 0 2.02c0,0.22 0.11,0.39 0.32,0.52z"/>
    <path class="fil1" d="M33.95 46.56c0.21,0.5 0.79,0.74 1.29,0.54 0.5,-0.21 0.74,-0.8 0.54,-1.3 -0.21,-0.49 -0.8,-0.74 -1.3,-0.53 -0.5,0.21 -0.73,0.79 -0.53,1.29z"/>
    <path class="fil0" d="M21.07 18.08c0.34,0.83 1.57,0.78 1.85,-0.07 0.28,-0.84 -0.65,-1.61 -1.43,-1.17 -0.42,0.24 -0.61,0.78 -0.42,1.24z"/>
   </g>
   <rect class="fil2" width="69.73" height="69.73"/>
  </g>
 </g>
</svg>
