<?xml version="1.0" encoding="UTF-8"?>
<!DOCTYPE svg PUBLIC "-//W3C//DTD SVG 1.1//EN" "http://www.w3.org/Graphics/SVG/1.1/DTD/svg11.dtd">
<!-- Creator: CorelDRAW 2018 (64 Bit Versão de avaliação) -->
<svg xmlns="http://www.w3.org/2000/svg" xml:space="preserve" width="1488px" height="1226px" version="1.1" style="shape-rendering:geometricPrecision; text-rendering:geometricPrecision; image-rendering:optimizeQuality; fill-rule:evenodd; clip-rule:evenodd"
viewBox="0 0 7097.29 5846.53"
 xmlns:xlink="http://www.w3.org/1999/xlink">
 <defs>
  <style type="text/css">
   <![CDATA[
    .str0 {stroke:#0033FF;stroke-width:112.68;stroke-miterlimit:22.9256}
    .fil4 {fill:none}
    .fil5 {fill:#0925FC}
    .fil1 {fill:#E6ECF2}
    .fil0 {fill:white}
    .fil3 {fill:#001463;fill-rule:nonzero}
    .fil2 {fill:#0033FF;fill-rule:nonzero}
    .fil6 {fill:#0925FC;fill-rule:nonzero}
   ]]>
  </style>
 </defs>
 <g id="Camada_x0020_1">
  <metadata id="CorelCorpID_0Corel-Layer"/>
  <g id="_2110299896464">
   <path class="fil0" d="M475.14 1419.06l4057.35 0c261.33,0 475.13,213.81 475.13,475.13l0 3952.34 -5007.62 0 0 -3952.34c0,-261.32 213.81,-475.13 475.14,-475.13z"/>
   <path class="fil1" d="M5007.62 5846.53l-3230.99 0 0 -4427.47 2755.86 0c261.33,0 475.13,213.81 475.13,475.13l0 3952.34z"/>
   <path class="fil2" d="M366.77 3632.79l4444.83 0 0 708.95 -4501.17 0 0 -708.95 56.34 0zm4332.15 112.68l-4275.81 0 0 483.59 4275.81 0 0 -483.59z"/>
   <polygon class="fil3" points="1776.63,3632.79 4811.6,3632.79 4811.6,4341.74 1776.63,4341.74 1776.63,4229.06 4698.92,4229.06 4698.92,3745.47 1776.63,3745.47 "/>
   <path class="fil2" d="M366.77 4568.41l4444.83 0 0 708.95 -4501.17 0 0 -708.95 56.34 0zm4332.15 112.68l-4275.81 0 0 483.59 4275.81 0 0 -483.59z"/>
   <polygon class="fil3" points="1776.63,4568.41 4811.6,4568.41 4811.6,5277.36 1776.63,5277.36 1776.63,5164.68 4698.92,5164.68 4698.92,4681.09 1776.63,4681.09 "/>
   <path class="fil2" d="M366.77 2697.17l4444.83 0 0 708.94 -4501.17 0 0 -708.94 56.34 0zm4332.15 112.68l-4275.81 0 0 483.58 4275.81 0 0 -483.58z"/>
   <polygon class="fil3" points="1776.63,2697.17 4811.6,2697.17 4811.6,3406.11 1776.63,3406.11 1776.63,3293.43 4698.92,3293.43 4698.92,2809.85 1776.63,2809.85 "/>
   <path class="fil0" d="M2776.23 0l3634.5 0c377.61,0 686.56,308.95 686.56,686.56l0 5159.97 -1716.52 0 -3291.1 0 0 -5159.97c0,-377.61 308.95,-686.56 686.56,-686.56z"/>
   <path class="fil4 str0" d="M5285.24 341.63l1158.17 0c152.69,0 277.62,124.92 277.62,277.62l0 303.38c0,152.69 -124.93,277.61 -277.62,277.61l-1158.17 0c-152.69,0 -277.62,-124.92 -277.62,-277.61l0 -303.38c0,-152.7 124.93,-277.62 277.62,-277.62z"/>
   <polygon class="fil4 str0" points="2332.54,1581.85 6721.03,1581.85 6721.03,2178.12 2332.54,2178.12 "/>
   <polygon class="fil4 str0" points="2332.54,2559.72 6721.03,2559.72 6721.03,3155.99 2332.54,3155.99 "/>
   <polygon class="fil4 str0" points="2332.54,3537.59 6721.03,3537.59 6721.03,4133.86 2332.54,4133.86 "/>
   <polygon class="fil4 str0" points="2332.54,4515.47 6721.03,4515.47 6721.03,5111.73 2332.54,5111.73 "/>
   <g>
    <g>
     <polygon class="fil5" points="2626.43,635.65 2677.73,712.85 2769.91,722.63 2692.7,773.92 2682.93,866.11 2631.63,788.89 2539.45,779.12 2616.66,727.82 "/>
     <polygon class="fil5" points="2441.66,620.79 2492.95,698 2585.13,707.77 2507.94,759.07 2498.15,851.25 2446.86,774.05 2354.68,764.27 2431.89,712.97 "/>
     <polygon class="fil5" points="2419.52,791.64 2470.82,868.84 2563.01,878.62 2485.8,929.91 2476.02,1022.09 2424.73,944.88 2332.54,935.11 2409.76,883.82 "/>
     <polygon class="fil5" points="2603.83,806.02 2655.13,883.23 2747.32,893.01 2670.11,944.3 2660.33,1036.49 2609.03,959.27 2516.85,949.51 2594.06,898.21 "/>
     <polygon class="fil5" points="2552.93,790.23 2562.98,818.11 2590.86,828.16 2562.98,838.22 2552.93,866.09 2542.88,838.22 2514.99,828.16 2542.88,818.11 "/>
    </g>
    <path class="fil6" d="M2893.02 713.15l57.26 183.6 -12.28 42.68 -58.14 0 -70.25 -226.28 83.41 0zm113.09 0l-46.07 151.79 -48.32 -151.79 94.39 0zm8.85 226.28l0 -226.28 80.55 0 0 226.28 -80.55 0zm206.52 -226.28c1.3,-0.21 2.71,-0.31 4.23,-0.37 1.46,-0.05 3.6,-0.1 6.32,-0.1 24.76,0 42.94,5.38 54.64,16.14 11.7,10.76 17.55,27.32 17.55,49.68 0,22.56 -5.85,39.22 -17.61,50.04 -11.74,10.8 -29.93,16.23 -54.58,16.23 -2.72,0 -4.86,0 -6.32,-0.05 -1.52,-0.05 -2.93,-0.2 -4.23,-0.41l0 -131.16zm-99.66 226.28l0 -226.28 80.54 0 0 226.28 -80.54 0zm445.11 -130.7l-74.06 -95.58 74.06 0 0 95.58zm-146.46 130.7l0 -103.11 79.7 103.11 -79.7 0zm63.98 -225.34c-2.14,2.3 -3.7,4.65 -4.76,6.95 -0.99,2.29 -1.5,4.69 -1.5,7.26 0,2.92 0.83,6.11 2.45,9.55 1.62,3.4 4.39,7.63 8.25,12.6l68.54 88.17c6.94,8.77 11.69,16.76 14.31,23.92 2.61,7.2 3.91,15.3 3.91,24.29 0,14.77 -5.01,27.2 -14.99,37.4 -10.02,10.13 -22.35,15.2 -37.08,15.2 -2.14,0 -4.44,-0.11 -6.85,-0.32 -2.45,-0.21 -5.17,-0.52 -8.14,-0.89 2.14,-2.09 3.76,-4.17 4.91,-6.32 1.1,-2.14 1.67,-4.34 1.67,-6.53 0,-3.39 -0.73,-6.73 -2.2,-10.13 -1.51,-3.34 -4.44,-7.84 -8.82,-13.43l-68.22 -87.7c-7.05,-9.08 -11.91,-17.18 -14.58,-24.33 -2.66,-7.16 -3.97,-15.15 -3.97,-24.03 0,-15.1 5.12,-27.69 15.31,-37.77 10.24,-10.08 23.19,-15.14 38.91,-15.14 2.72,0 6.79,0.42 12.07,1.25l0.78 0zm99.91 225.34l50.77 -185.75 16.82 88.59 19.43 0 -24.91 -129.12 80.75 0 43.93 226.28 -80.66 0 -14.99 -76.79 -19.43 0 15.04 76.79 -86.75 0zm282.77 2.81c-29.31,-0.41 -49.84,-6.68 -61.63,-18.8 -11.76,-12.17 -17.67,-33.53 -17.67,-64.14l0 -146.15 79.3 0 0 229.09zm17.24 0l0 -229.09 79.28 0 0 146.15c0,30.61 -5.9,51.97 -17.65,64.14 -11.81,12.12 -32.33,18.39 -61.63,18.8zm-20.07 -297.1l66.13 0 -66.13 57.98 0 -57.98zm205.94 294.29l-80.54 0 0 -226.28 80.54 0 0 226.28zm19.12 0l0 -226.28c28.57,2.56 50.35,13.47 65.28,32.75 15,19.27 22.47,46.07 22.47,80.44 0,34.37 -7.47,61.27 -22.47,80.59 -14.93,19.33 -36.71,30.14 -65.28,32.5zm188.7 0l-79.29 0 0 -226.28 79.29 0 0 226.28zm6.58 -226.28l78.4 0 0 87.13 -78.4 -87.13zm48.57 155.14l-49.51 -46.7 49.51 -46.7 0 93.4zm-48.57 71.14l79.6 -101.86 0 101.86 -79.6 0z"/>
   </g>
  </g>
 </g>
</svg>
