<?xml version="1.0" encoding="UTF-8"?>
<!DOCTYPE svg PUBLIC "-//W3C//DTD SVG 1.1//EN" "http://www.w3.org/Graphics/SVG/1.1/DTD/svg11.dtd">
<!-- Creator: CorelDRAW 2018 (64 Bit Versão de avaliação) -->
<svg xmlns="http://www.w3.org/2000/svg" xml:space="preserve" width="300px" height="300px" version="1.1" style="shape-rendering:geometricPrecision; text-rendering:geometricPrecision; image-rendering:optimizeQuality; fill-rule:evenodd; clip-rule:evenodd"
viewBox="0 0 67.45 67.45"
 xmlns:xlink="http://www.w3.org/1999/xlink">
 <defs>
  <style type="text/css">
   <![CDATA[
    .fil2 {fill:none}
    .fil1 {fill:#14A9FF}
    .fil0 {fill:#0033FF;fill-rule:nonzero}
   ]]>
  </style>
 </defs>
 <g id="Camada_x0020_1">
  <metadata id="CorelCorpID_0Corel-Layer"/>
  <g id="_2352185617472">
   <g>
    <path class="fil0" d="M29.51 16.59l0.02 0c0.49,0 0.88,-0.39 0.88,-0.87 0,-0.48 -0.39,-0.88 -0.88,-0.88l-0.02 0c-0.48,0 -0.87,0.4 -0.87,0.88 0,0.48 0.39,0.87 0.87,0.87z"/>
    <path class="fil0" d="M49.81 14.84l-2.97 0 0 -1.22c0,-1.25 -1.02,-2.27 -2.27,-2.27 -1.26,0 -2.28,1.02 -2.28,2.27l0 1.22 -9.26 0c-0.49,0 -0.88,0.4 -0.88,0.88 0,0.48 0.39,0.87 0.88,0.87l9.26 0 0 1.23c0,1.25 1.02,2.27 2.28,2.27 1.25,0 2.27,-1.02 2.27,-2.27l0 -1.23 2.97 0c0.29,0 0.53,0.24 0.53,0.53l0 4.72 -33.22 0 0 -4.72c0,-0.29 0.24,-0.53 0.52,-0.53l2.97 0 0 1.23c0,1.25 1.02,2.27 2.28,2.27 1.25,0 2.27,-1.02 2.27,-2.27l0 -1.23 1.84 0c0.48,0 0.87,-0.39 0.87,-0.87 0,-0.48 -0.39,-0.88 -0.87,-0.88l-1.84 0 0 -1.22c0,-1.25 -1.02,-2.27 -2.27,-2.27 -1.26,0 -2.28,1.02 -2.28,2.27l0 1.22 -2.97 0c-1.25,0 -2.27,1.02 -2.27,2.28l0 36.71c0,1.26 1.02,2.28 2.27,2.28l32.17 0c1.25,0 2.27,-1.02 2.27,-2.28l0 -36.71c0,-1.26 -1.02,-2.28 -2.27,-2.28zm-4.72 2.98c0,0.28 -0.24,0.52 -0.52,0.52 -0.29,0 -0.53,-0.24 -0.53,-0.52l0 -4.2c0,-0.28 0.24,-0.52 0.53,-0.52 0.28,0 0.52,0.24 0.52,0.52l0 4.2zm-22.73 -4.2c0,-0.28 0.24,-0.52 0.53,-0.52 0.28,0 0.52,0.24 0.52,0.52l0 4.2c0,0.28 -0.24,0.52 -0.52,0.52 -0.29,0 -0.53,-0.24 -0.53,-0.52l0 -4.2zm27.45 40.74l-32.17 0c-0.28,0 -0.52,-0.24 -0.52,-0.53l0 -30.24 33.22 0 0 30.24c0,0.29 -0.24,0.53 -0.53,0.53z"/>
    <path class="fil0" d="M48.59 51.73l-3.59 0c-0.48,0 -0.87,0.4 -0.87,0.88 0,0.48 0.39,0.87 0.87,0.87l3.59 0c0.48,0 0.87,-0.39 0.87,-0.87 0,-0.48 -0.39,-0.88 -0.87,-0.88z"/>
    <path class="fil0" d="M42.49 51.73l-0.02 0c-0.48,0 -0.88,0.4 -0.88,0.88 0,0.48 0.4,0.87 0.88,0.87l0.02 0c0.48,0 0.87,-0.39 0.87,-0.87 0,-0.48 -0.39,-0.88 -0.87,-0.88z"/>
    <path class="fil0" d="M18.87 26.21l5.42 0c0.48,0 0.87,-0.39 0.87,-0.88 0,-0.48 -0.39,-0.87 -0.87,-0.87l-5.42 0c-0.49,0 -0.88,0.39 -0.88,0.87 0,0.49 0.39,0.88 0.88,0.88z"/>
    <path class="fil0" d="M22.36 27.96c0,-0.49 -0.39,-0.88 -0.87,-0.88l-2.62 0c-0.49,0 -0.88,0.39 -0.88,0.88 0,0.48 0.39,0.87 0.88,0.87l2.62 0c0.48,0 0.87,-0.39 0.87,-0.87z"/>
    <path class="fil1" d="M36.3 47.61l-1.72 0c-0.95,0 -1.72,-0.78 -1.72,-1.73l0 -7.73 -0.1 0.05c-0.37,0.18 -0.71,0.32 -1.02,0.44 -0.89,0.32 -1.88,-0.14 -2.2,-1.03 -0.07,-0.2 -0.11,-0.39 -0.11,-0.59l0 0 0 -1.66c0,-0.74 0.47,-1.37 1.13,-1.61 0.35,-0.18 0.68,-0.37 1,-0.57 0.35,-0.23 0.67,-0.48 0.96,-0.73l0.01 -0.01 -0.01 0c0.31,-0.27 0.55,-0.52 0.74,-0.75 0.17,-0.21 0.3,-0.4 0.39,-0.59 0.3,-0.61 0.91,-0.96 1.55,-0.96l0 0 1.1 0c0.95,0 1.73,0.77 1.73,1.72l0 14.02c0,0.95 -0.78,1.73 -1.73,1.73zm0 -1.73l-1.72 0 0 -10.93c-0.41,0.4 -0.95,0.79 -1.62,1.19 -0.67,0.39 -1.27,0.69 -1.81,0.88l0 -1.66c0.96,-0.44 1.8,-0.99 2.52,-1.63 0.72,-0.64 1.23,-1.27 1.53,-1.87l1.1 0 0 14.02z"/>
   </g>
   <rect class="fil2" width="67.45" height="67.45"/>
  </g>
 </g>
</svg>
