<?xml version="1.0" encoding="UTF-8"?>
<!DOCTYPE svg PUBLIC "-//W3C//DTD SVG 1.1//EN" "http://www.w3.org/Graphics/SVG/1.1/DTD/svg11.dtd">
<!-- Creator: CorelDRAW 2018 (64 Bit Versão de avaliação) -->
<svg xmlns="http://www.w3.org/2000/svg" xml:space="preserve" width="1000px" height="205px" version="1.1" style="shape-rendering:geometricPrecision; text-rendering:geometricPrecision; image-rendering:optimizeQuality; fill-rule:evenodd; clip-rule:evenodd"
viewBox="0 0 525.65 107.55"
 xmlns:xlink="http://www.w3.org/1999/xlink">
 <defs>
  <style type="text/css">
   <![CDATA[
    .fil0 {fill:white}
    .fil1 {fill:white;fill-rule:nonzero}
   ]]>
  </style>
 </defs>
 <g id="Camada_x0020_1">
  <metadata id="CorelCorpID_0Corel-Layer"/>
  <g id="_2169237132080">
   <g>
    <polygon class="fil0" points="76.04,3.84 89.31,23.82 113.16,26.35 93.18,39.62 90.65,63.47 77.38,43.49 53.53,40.96 73.51,27.69 "/>
    <polygon class="fil0" points="28.23,0 41.5,19.98 65.35,22.5 45.38,35.78 42.85,59.63 29.58,39.65 5.73,37.12 25.7,23.85 "/>
    <polygon class="fil0" points="22.5,44.2 35.78,64.18 59.63,66.71 39.65,79.98 37.12,103.83 23.85,83.85 0,81.32 19.98,68.05 "/>
    <polygon class="fil0" points="70.19,47.93 83.46,67.9 107.31,70.43 87.33,83.7 84.81,107.55 71.53,87.58 47.68,85.05 67.66,71.77 "/>
    <polygon class="fil0" points="57.02,43.84 59.62,51.05 66.83,53.65 59.62,56.25 57.02,63.47 54.42,56.25 47.2,53.65 54.42,51.05 "/>
   </g>
   <path class="fil1" d="M145.01 23.9l14.81 47.5 -3.18 11.04 -15.04 0 -18.17 -58.54 21.58 0zm29.26 0l-11.92 39.27 -12.5 -39.27 24.42 0zm2.29 58.54l0 -58.54 20.84 0 0 58.54 -20.84 0zm53.43 -58.54c0.34,-0.06 0.7,-0.09 1.09,-0.1 0.38,-0.01 0.93,-0.03 1.64,-0.03 6.4,0 11.11,1.4 14.13,4.18 3.03,2.78 4.54,7.07 4.54,12.85 0,5.84 -1.51,10.15 -4.55,12.95 -3.04,2.8 -7.74,4.2 -14.12,4.2 -0.71,0 -1.26,0 -1.64,-0.01 -0.39,-0.02 -0.75,-0.06 -1.09,-0.11l0 -33.93zm-25.79 58.54l0 -58.54 20.84 0 0 58.54 -20.84 0zm115.16 -33.81l-19.16 -24.73 19.16 0 0 24.73zm-37.89 33.81l0 -26.68 20.62 26.68 -20.62 0zm16.56 -58.3c-0.56,0.59 -0.96,1.2 -1.23,1.8 -0.26,0.59 -0.4,1.21 -0.4,1.87 0,0.76 0.22,1.59 0.64,2.48 0.42,0.88 1.13,1.97 2.13,3.25l17.73 22.82c1.8,2.27 3.03,4.33 3.71,6.19 0.67,1.86 1.01,3.95 1.01,6.28 0,3.82 -1.3,7.04 -3.88,9.68 -2.59,2.62 -5.78,3.93 -9.59,3.93 -0.56,0 -1.15,-0.03 -1.77,-0.08 -0.64,-0.06 -1.34,-0.14 -2.11,-0.23 0.55,-0.54 0.97,-1.08 1.27,-1.64 0.28,-0.55 0.43,-1.12 0.43,-1.69 0,-0.88 -0.19,-1.74 -0.57,-2.62 -0.39,-0.86 -1.14,-2.03 -2.28,-3.47l-17.65 -22.69c-1.82,-2.35 -3.08,-4.45 -3.77,-6.3 -0.69,-1.85 -1.03,-3.92 -1.03,-6.22 0,-3.9 1.33,-7.16 3.96,-9.77 2.65,-2.6 6,-3.92 10.07,-3.92 0.7,0 1.76,0.11 3.12,0.33l0.21 0zm25.84 58.3l13.14 -48.06 4.35 22.92 5.03 0 -6.45 -33.4 20.89 0 11.37 58.54 -20.87 0 -3.88 -19.87 -5.02 0 3.89 19.87 -22.45 0zm73.16 0.73c-7.58,-0.11 -12.89,-1.73 -15.95,-4.87 -3.04,-3.15 -4.56,-8.67 -4.56,-16.59l0 -37.81 20.51 0 0 59.27zm4.46 0l0 -59.27 20.52 0 0 37.81c0,7.92 -1.53,13.44 -4.57,16.59 -3.06,3.14 -8.37,4.76 -15.95,4.87zm-5.19 -76.87l17.11 0 -17.11 15 0 -15zm53.28 76.14l-20.84 0 0 -58.54 20.84 0 0 58.54zm4.95 0l0 -58.54c7.39,0.66 13.03,3.48 16.89,8.47 3.88,4.99 5.81,11.92 5.81,20.81 0,8.89 -1.93,15.85 -5.81,20.85 -3.86,5 -9.5,7.8 -16.89,8.41zm48.82 0l-20.52 0 0 -58.54 20.52 0 0 58.54zm1.7 -58.54l20.29 0 0 22.54 -20.29 -22.54zm12.57 40.13l-12.81 -12.08 12.81 -12.08 0 24.16zm-12.57 18.41l20.6 -26.35 0 26.35 -20.6 0z"/>
  </g>
 </g>
</svg>
