<?xml version="1.0" encoding="UTF-8"?>
<!DOCTYPE svg PUBLIC "-//W3C//DTD SVG 1.1//EN" "http://www.w3.org/Graphics/SVG/1.1/DTD/svg11.dtd">
<!-- Creator: CorelDRAW 2018 (64 Bit Versão de avaliação) -->
<svg xmlns="http://www.w3.org/2000/svg" xml:space="preserve" width="300px" height="300px" version="1.1" style="shape-rendering:geometricPrecision; text-rendering:geometricPrecision; image-rendering:optimizeQuality; fill-rule:evenodd; clip-rule:evenodd"
viewBox="0 0 216.48 216.48"
 xmlns:xlink="http://www.w3.org/1999/xlink">
 <defs>
  <style type="text/css">
   <![CDATA[
    .fil2 {fill:none}
    .fil0 {fill:#0033FF;fill-rule:nonzero}
    .fil1 {fill:#14A9FF;fill-rule:nonzero}
   ]]>
  </style>
 </defs>
 <g id="Camada_x0020_1">
  <metadata id="CorelCorpID_0Corel-Layer"/>
  <g id="_2352011312352">
   <g>
    <path class="fil0" d="M108.24 75.46c-1.39,0 -2.53,-1.14 -2.53,-2.53l-5.04 0c0,3.29 2.11,6.07 5.04,7.11l0 5.51 5.05 0 0 -5.51c2.93,-1.04 5.05,-3.82 5.05,-7.11 0,-4.17 -3.4,-7.57 -7.57,-7.57 -1.39,0 -2.53,-1.13 -2.53,-2.52 0,-1.39 1.14,-2.53 2.53,-2.53 1.39,0 2.52,1.14 2.52,2.53l5.05 0c0,-3.29 -2.12,-6.06 -5.05,-7.11l0 -5.51 -5.05 0 0 5.51c-2.93,1.05 -5.04,3.82 -5.04,7.11 0,4.17 3.4,7.57 7.57,7.57 1.39,0 2.52,1.13 2.52,2.52 0,1.39 -1.13,2.53 -2.52,2.53z"/>
    <path class="fil0" d="M186.48 105.74l0 -75.71 -156.48 0 0 75.71 40.38 0 0 14.08c0,4.5 1.32,8.86 3.82,12.6l6.28 9.42 0 4.28 -5.05 0 0 25.24 42.97 0c-0.64,-0.86 0.57,-2.3 0,-3.21 -3.64,-5.82 -5.86,-12.13 -5.86,-19.5 0,-31.23 40.19,-38.17 33.56,-37.73l0 -5.18 40.38 0zm-106 60.58l0 -15.15 30.41 0c0.36,5.44 1.85,10.57 4.27,15.15l-34.68 0zm60.57 -54.77c-16.46,3.36 -29.02,17.43 -30.16,34.57l-25.37 0 0 -5.81 -7.12 -10.69c-1.94,-2.91 -2.97,-6.3 -2.97,-9.8l0 -19.13 -40.38 0 0 -65.61 146.38 0 0 65.61 -90.86 0 0 -11.38c4.92,4.08 11.09,6.34 17.67,6.34l58.05 0 0 -2.53c0,-4.17 3.4,-7.57 7.57,-7.57l2.52 0 0 -35.33 -2.52 0c-4.17,0 -7.57,-3.4 -7.57,-7.57l0 -2.53 -116.1 0 0 2.53c0,4.17 -3.4,7.57 -7.57,7.57l-2.52 0 0 35.33 2.52 0c4.17,0 7.57,3.4 7.57,7.57l0 2.53 25.24 0 0 -17.67c0,-2.78 2.26,-5.05 5.05,-5.05 2.78,0 5.04,2.27 5.04,5.05l0 37.86 2.53 0c6.96,0 12.62,5.66 12.62,12.62l5.04 0c0,-8.89 -6.59,-16.26 -15.14,-17.49l0 -5.23 50.48 0 0 5.81zm-55.44 -42.21c-0.03,-0.49 -0.09,-0.97 -0.09,-1.45 0,-12.53 10.2,-22.72 22.72,-22.72 12.52,0 22.71,10.19 22.71,22.72 0,12.52 -10.19,22.71 -22.71,22.71 -6.95,0 -13.33,-3.1 -17.67,-8.48l0 -4.14c0,-3.68 -2,-6.88 -4.96,-8.64zm-5.13 -1.45c-5.57,0 -10.1,4.52 -10.1,10.09l0 12.62 -15.4 0c-1,-4.94 -4.9,-8.84 -9.84,-9.84l0 -25.75c4.94,-1 8.84,-4.9 9.84,-9.84l37.35 0c-7.16,5.03 -11.85,13.33 -11.85,22.72zm43.67 -22.72l37.34 0c1.01,4.94 4.91,8.84 9.85,9.84l0 25.75c-4.94,1 -8.84,4.9 -9.85,9.84l-37.34 0c7.16,-5.03 11.85,-13.32 11.85,-22.71 0,-9.39 -4.69,-17.69 -11.85,-22.72z"/>
    <polygon class="fil0" points="40.1,45.17 45.14,45.17 45.14,40.12 40.1,40.12 "/>
    <polygon class="fil0" points="40.1,95.65 45.14,95.65 45.14,90.6 40.1,90.6 "/>
    <polygon class="fil0" points="171.34,45.17 176.38,45.17 176.38,40.12 171.34,40.12 "/>
    <polygon class="fil0" points="171.34,95.65 176.38,95.65 176.38,90.6 171.34,90.6 "/>
    <g>
     <path class="fil1" d="M118.4 171.36l0.01 0c1.18,1.57 2.48,3.05 3.89,4.42l0.03 0.02c0.11,0.12 0.23,0.23 0.35,0.34 0.15,0.14 0.3,0.28 0.45,0.42l0.17 0.16c6.71,6.05 15.58,9.73 25.32,9.73 20.88,0 37.8,-16.92 37.8,-37.8 0,-20.88 -16.92,-37.8 -37.8,-37.8 -20.88,0 -37.8,16.92 -37.8,37.8 0,8.52 2.82,16.39 7.58,22.71zm63.03 -22.71c0,18.09 -14.72,32.81 -32.81,32.81 -18.09,0 -32.81,-14.72 -32.81,-32.81 0,-18.09 14.72,-32.81 32.81,-32.81 18.09,0 32.81,14.72 32.81,32.81z"/>
     <path class="fil1" d="M137.48 148.65l-15.14 15.14 11.14 11.14 15.14 -15.14 15.14 15.14 11.14 -11.14 -15.14 -15.14 15.14 -15.14 -11.14 -11.15 -15.14 15.15 -15.14 -15.15 -11.14 11.15 15.14 15.14zm11.14 -4l15.14 -15.15 4.01 4.01 -15.15 15.14 15.15 15.14 -4.01 4 -15.14 -15.14 -15.14 15.14 -4.01 -4 15.15 -15.14 -15.15 -15.14 4.01 -4.01 15.14 15.15z"/>
    </g>
   </g>
   <rect class="fil2" width="216.48" height="216.48"/>
  </g>
 </g>
</svg>
