<?xml version="1.0" encoding="UTF-8"?>
<!DOCTYPE svg PUBLIC "-//W3C//DTD SVG 1.1//EN" "http://www.w3.org/Graphics/SVG/1.1/DTD/svg11.dtd">
<!-- Creator: CorelDRAW 2018 (64 Bit Versão de avaliação) -->
<svg xmlns="http://www.w3.org/2000/svg" xml:space="preserve" width="1308px" height="250px" version="1.1" style="shape-rendering:geometricPrecision; text-rendering:geometricPrecision; image-rendering:optimizeQuality; fill-rule:evenodd; clip-rule:evenodd"
viewBox="0 0 655.38 125.25"
 xmlns:xlink="http://www.w3.org/1999/xlink">
 <defs>
  <style type="text/css">
   <![CDATA[
    .fil0 {fill:white;fill-rule:nonzero}
   ]]>
  </style>
 </defs>
 <g id="Camada_x0020_1">
  <metadata id="CorelCorpID_0Corel-Layer"/>
  <path class="fil0" d="M35.17 28.67l24.13 77.4 -5.18 17.99 -24.5 0 -29.62 -95.39 35.17 0zm47.67 0l-19.42 63.99 -20.37 -63.99 39.79 0zm3.73 95.39l0 -95.39 33.96 0 0 95.39 -33.96 0zm87.06 -95.39c0.55,-0.09 1.15,-0.13 1.78,-0.15 0.62,-0.03 1.52,-0.05 2.67,-0.05 10.44,0 18.1,2.27 23.03,6.81 4.93,4.53 7.4,11.51 7.4,20.94 0,9.51 -2.47,16.53 -7.42,21.09 -4.95,4.56 -12.62,6.85 -23.01,6.85 -1.15,0 -2.05,0 -2.67,-0.02 -0.63,-0.02 -1.23,-0.09 -1.78,-0.18l0 -55.29zm-42.01 95.39l0 -95.39 33.95 0 0 95.39 -33.95 0zm187.64 -55.09l-31.22 -40.3 31.22 0 0 40.3zm-61.74 55.09l0 -43.47 33.6 43.47 -33.6 0zm26.97 -94.99c-0.9,0.97 -1.56,1.96 -2,2.92 -0.42,0.97 -0.64,1.99 -0.64,3.07 0,1.23 0.35,2.57 1.04,4.03 0.68,1.43 1.85,3.21 3.47,5.3l28.89 37.17c2.93,3.7 4.94,7.07 6.04,10.09 1.1,3.04 1.65,6.45 1.65,10.24 0,6.23 -2.11,11.47 -6.32,15.76 -4.23,4.27 -9.42,6.41 -15.63,6.41 -0.91,0 -1.88,-0.04 -2.89,-0.13 -1.03,-0.09 -2.18,-0.22 -3.43,-0.38 0.9,-0.88 1.58,-1.76 2.07,-2.66 0.46,-0.9 0.7,-1.83 0.7,-2.75 0,-1.44 -0.31,-2.84 -0.92,-4.28 -0.64,-1.41 -1.88,-3.3 -3.73,-5.65l-28.75 -36.98c-2.98,-3.83 -5.02,-7.24 -6.15,-10.26 -1.12,-3.01 -1.67,-6.38 -1.67,-10.13 0,-6.36 2.16,-11.67 6.45,-15.92 4.32,-4.25 9.78,-6.38 16.41,-6.38 1.14,0 2.86,0.17 5.08,0.53l0.33 0zm42.12 94.99l21.4 -78.3 7.09 37.34 8.19 0 -10.5 -54.43 34.04 0 18.52 95.39 -34 0 -6.32 -32.37 -8.19 0 6.34 32.37 -36.57 0zm119.2 1.19c-12.35,-0.18 -21,-2.82 -25.98,-7.93 -4.95,-5.13 -7.44,-14.14 -7.44,-27.04l0 -61.61 33.42 0 0 96.58zm7.27 0l0 -96.58 33.43 0 0 61.61c0,12.9 -2.49,21.91 -7.45,27.04 -4.97,5.11 -13.63,7.75 -25.98,7.93zm-8.45 -125.25l27.87 0 -27.87 24.44 0 -24.44zm86.81 124.06l-33.95 0 0 -95.39 33.95 0 0 95.39zm8.06 0l0 -95.39c12.04,1.08 21.23,5.68 27.52,13.81 6.32,8.12 9.47,19.42 9.47,33.91 0,14.49 -3.15,25.83 -9.47,33.97 -6.29,8.15 -15.48,12.71 -27.52,13.7zm79.55 0l-33.43 0 0 -95.39 33.43 0 0 95.39zm2.77 -95.39l33.06 0 0 36.73 -33.06 -36.73zm20.48 65.4l-20.87 -19.69 20.87 -19.68 0 39.37zm-20.48 29.99l33.56 -42.94 0 42.94 -33.56 0z"/>
 </g>
</svg>
