<?xml version="1.0" encoding="UTF-8"?>
<!DOCTYPE svg PUBLIC "-//W3C//DTD SVG 1.1//EN" "http://www.w3.org/Graphics/SVG/1.1/DTD/svg11.dtd">
<!-- Creator: CorelDRAW 2018 (64 Bit Versão de avaliação) -->
<svg xmlns="http://www.w3.org/2000/svg" xml:space="preserve" width="1000px" height="233px" version="1.1" style="shape-rendering:geometricPrecision; text-rendering:geometricPrecision; image-rendering:optimizeQuality; fill-rule:evenodd; clip-rule:evenodd"
viewBox="0 0 935.58 218.43"
 xmlns:xlink="http://www.w3.org/1999/xlink">
 <defs>
  <style type="text/css">
   <![CDATA[
    .fil2 {fill:none}
    .fil0 {fill:#0925FC}
    .fil1 {fill:#0925FC;fill-rule:nonzero}
   ]]>
  </style>
 </defs>
 <g id="Camada_x0020_1">
  <metadata id="CorelCorpID_0Corel-Layer"/>
  <g id="_2521663998816">
   <g>
    <g>
     <polygon class="fil0" points="153.63,25.23 175.95,58.83 216.06,63.08 182.47,85.41 178.21,125.52 155.89,91.92 115.78,87.67 149.38,65.35 "/>
     <polygon class="fil0" points="73.22,18.77 95.55,52.37 135.66,56.62 102.06,78.94 97.81,119.05 75.49,85.46 35.37,81.2 68.97,58.88 "/>
     <polygon class="fil0" points="63.59,93.11 85.92,126.71 126.03,130.96 92.43,153.28 88.18,193.4 65.86,159.8 25.74,155.55 59.34,133.22 "/>
     <polygon class="fil0" points="143.79,99.37 166.12,132.97 206.23,137.22 172.63,159.55 168.38,199.66 146.06,166.06 105.95,161.81 139.54,139.49 "/>
     <polygon class="fil0" points="121.64,92.5 126.02,104.63 138.15,109.01 126.02,113.38 121.64,125.51 117.27,113.38 105.14,109.01 117.27,104.63 "/>
    </g>
    <path class="fil1" d="M269.64 58.96l24.91 79.89 -5.34 18.57 -25.3 0 -30.57 -98.46 36.3 0zm49.2 0l-20.04 66.05 -21.03 -66.05 41.07 0zm3.86 98.46l0 -98.46 35.05 0 0 98.46 -35.05 0zm89.86 -98.46c0.57,-0.09 1.18,-0.14 1.84,-0.16 0.64,-0.02 1.57,-0.05 2.75,-0.05 10.78,0 18.69,2.35 23.78,7.03 5.09,4.68 7.64,11.89 7.64,21.61 0,9.82 -2.55,17.07 -7.66,21.78 -5.12,4.7 -13.03,7.07 -23.76,7.07 -1.18,0 -2.11,0 -2.75,-0.03 -0.66,-0.02 -1.27,-0.09 -1.84,-0.18l0 -57.07zm-43.36 98.46l0 -98.46 35.04 0 0 98.46 -35.04 0zm193.69 -56.87l-32.23 -41.59 32.23 0 0 41.59zm-63.74 56.87l0 -44.87 34.69 44.87 -34.69 0zm27.85 -98.05c-0.94,1 -1.62,2.02 -2.07,3.02 -0.43,1 -0.66,2.05 -0.66,3.16 0,1.27 0.36,2.66 1.07,4.16 0.7,1.48 1.91,3.32 3.59,5.48l29.82 38.36c3.02,3.82 5.09,7.3 6.23,10.41 1.13,3.14 1.7,6.66 1.7,10.57 0,6.44 -2.18,11.85 -6.52,16.28 -4.37,4.41 -9.73,6.61 -16.14,6.61 -0.93,0 -1.93,-0.04 -2.98,-0.13 -1.07,-0.1 -2.25,-0.23 -3.54,-0.39 0.93,-0.91 1.63,-1.82 2.13,-2.75 0.48,-0.93 0.73,-1.89 0.73,-2.84 0,-1.48 -0.32,-2.93 -0.95,-4.41 -0.66,-1.46 -1.94,-3.41 -3.84,-5.84l-29.69 -38.17c-3.07,-3.95 -5.18,-7.47 -6.34,-10.59 -1.16,-3.11 -1.73,-6.59 -1.73,-10.45 0,-6.57 2.23,-12.05 6.66,-16.44 4.46,-4.38 10.09,-6.59 16.93,-6.59 1.19,0 2.96,0.18 5.26,0.55l0.34 0zm43.47 98.05l22.09 -80.82 7.32 38.55 8.46 0 -10.85 -56.19 35.14 0 19.12 98.46 -35.1 0 -6.52 -33.41 -8.45 0 6.54 33.41 -37.75 0zm123.05 1.23c-12.76,-0.18 -21.69,-2.91 -26.82,-8.18 -5.12,-5.3 -7.69,-14.6 -7.69,-27.91l0 -63.6 34.51 0 0 99.69zm7.5 0l0 -99.69 34.5 0 0 63.6c0,13.31 -2.57,22.61 -7.68,27.91 -5.14,5.27 -14.07,8 -26.82,8.18zm-8.73 -129.28l28.77 0 -28.77 25.22 0 -25.22zm89.61 128.05l-35.05 0 0 -98.46 35.05 0 0 98.46zm8.32 0l0 -98.46c12.43,1.11 21.91,5.86 28.41,14.25 6.53,8.39 9.78,20.05 9.78,35 0,14.96 -3.25,26.66 -9.78,35.07 -6.5,8.41 -15.98,13.12 -28.41,14.14zm82.11 0l-34.5 0 0 -98.46 34.5 0 0 98.46zm2.87 -98.46l34.11 0 0 37.91 -34.11 -37.91zm21.13 67.5l-21.54 -20.32 21.54 -20.32 0 40.64zm-21.13 30.96l34.64 -44.32 0 44.32 -34.64 0z"/>
   </g>
   <rect class="fil2" width="935.58" height="218.43"/>
  </g>
 </g>
</svg>
